<?xml version="1.0" encoding="UTF-8"?>
<svg id="_레이어_1" data-name="레이어 1" xmlns="http://www.w3.org/2000/svg" viewBox="0 0 1080 1080">
  <path d="M468.45,547.17h555.58v476.65h-143.51v-36.9h-275.74v36.9h-136.33v-378.24l-50.23,68.68c-15.38-22.55-37.93-51.25-61.5-78.93v391.57h-145.56v-316.74c-27.68,25.63-56.38,48.18-85.08,67.65-11.28-39.98-46.13-115.83-67.65-143.51,96.36-55.35,185.53-152.73,242.94-260.36H97.38v-133.26h113.78V53.1h145.56v187.58h19.48l24.6-5.13,82,52.28c-24.6,71.75-58.43,142.48-98.41,207.06,23.58,17.43,57.4,45.1,84.05,67.65v-15.38ZM1026.08,91.03v124.03H462.3v-124.03h563.78ZM980.98,242.73v271.64h-462.3V242.73h462.3ZM604.78,665.06v47.15h71.75v-47.15h-71.75ZM604.78,869.04h71.75v-48.18h-71.75v48.18ZM843.62,353.44h-193.73v50.23h193.73v-50.23ZM880.52,665.06h-71.75v47.15h71.75v-47.15ZM880.52,869.04v-48.18h-71.75v48.18h71.75Z"/>
</svg>