<?xml version="1.0" encoding="UTF-8"?>
<svg id="_레이어_1" data-name="레이어 1" xmlns="http://www.w3.org/2000/svg" viewBox="0 0 1080 1080">
  <path d="M412.45,519.11c57.18,25.29,74.77,32.99,128.65,61.58h348.56c21.99-25.29,29.69-32.99,52.78-58.28,39.58,25.29,51.68,32.99,86.87,58.28,12.1,7.7,16.49,14.29,16.49,20.89,0,11-7.7,17.59-31.89,32.99q0,157.24,4.4,392.54c0,12.1-3.3,17.59-14.29,20.89-9.9,4.4-45.08,7.7-75.87,7.7-23.09,0-29.69-3.3-30.79-17.59v-50.58h-366.16v39.58c-1.1,15.39-5.5,20.89-17.59,24.19-7.7,2.2-48.38,5.5-69.27,5.5-24.19,0-31.89-5.5-31.89-21.99v-2.2c4.4-131.95,4.4-156.14,4.4-294.68v-64.88c-8.8,28.59-36.29,52.78-58.28,52.78-15.39,0-20.89-7.7-26.39-42.88-12.1-75.87-30.79-125.35-51.68-144.04v238.61c0,39.58,1.1,123.15,2.2,252.9-2.2,20.89-17.59,26.39-75.87,26.39-36.29,0-42.88-3.3-43.98-21.99,3.3-146.24,4.4-227.61,4.4-244.1v-169.33c-29.69,29.69-64.87,57.18-138.55,105.56l-9.9-12.09c60.48-62.68,102.26-117.65,151.74-200.12,52.78-86.87,80.27-146.24,107.76-229.81H115.57c-31.89,0-47.28,1.1-72.57,5.5l-6.6-37.39c30.79,6.6,47.28,8.8,79.17,8.8h48.38v-130.85c0-31.89-1.1-48.38-6.6-84.67,130.85,12.1,137.45,13.19,149.54,16.49,8.8,3.3,14.29,7.7,14.29,13.19,0,11-14.29,19.79-42.88,29.69v156.14h24.19c20.89-25.29,27.49-32.99,49.48-57.18,34.09,27.49,43.98,35.19,75.87,63.77,8.8,8.8,12.1,14.29,12.1,18.69,0,7.7-12.1,15.39-41.78,24.19-48.38,95.66-65.97,125.35-117.65,190.22v14.29c68.17,28.59,119.85,69.27,135.25,105.56l-3.3-102.26ZM401.46,102.37c29.69,7.7,54.98,9.9,93.46,9.9h362.86l81.37-89.06c49.48,39.58,65.97,52.78,116.55,94.56,3.3,5.5,5.5,7.7,5.5,11s-4.4,6.6-12.1,6.6H494.92c-39.58,0-58.28,1.1-85.77,5.5l-7.7-38.48ZM579.58,494.92c-2.2,20.89-15.39,25.29-76.97,25.29-31.89,0-38.48-3.3-39.58-19.79q3.3-138.54,3.3-191.32c0-65.97-1.1-86.87-5.5-127.55,58.28,25.29,74.77,32.99,129.75,62.68h247.4c24.19-27.49,32.99-35.19,59.38-62.68,38.48,27.49,50.58,35.19,85.77,62.68,8.8,7.7,13.19,13.19,13.19,17.59,0,8.8-5.5,13.19-35.19,31.89v34.09c0,41.78,1.1,102.26,3.3,163.83,0,9.9-2.2,14.29-7.7,18.69-9.9,5.5-37.38,9.9-72.57,9.9-30.79,0-36.29-3.3-37.38-19.79v-36.29h-267.19v30.79ZM653.25,761.01v-157.24h-122.05v157.24h122.05ZM653.25,784.1h-122.05v180.33h122.05v-180.33ZM579.58,441.04h267.19v-173.73h-267.19v173.73ZM897.36,603.77h-130.85v157.24h130.85v-157.24ZM766.51,784.1v180.33h130.85v-180.33h-130.85Z"/>
</svg>